<svg width="215" height="41" viewBox="0 0 215 41" fill="none" xmlns="http://www.w3.org/2000/svg">
<path d="M17.8 28H19.54V21.98H25.76V20.38H19.54V15.4H26.86V13.8H17.8V28ZM32.9175 28.12C35.7775 28.12 37.9175 26.1 37.9175 23.14C37.9175 20.18 35.7775 18.14 32.9175 18.14C29.8775 18.14 27.8775 20.34 27.8775 23.14C27.8775 25.94 29.8775 28.12 32.9175 28.12ZM32.9175 26.64C30.8975 26.64 29.5175 25.08 29.5175 23.14C29.5175 21.2 30.8775 19.64 32.9175 19.64C34.7975 19.64 36.2775 21.06 36.2775 23.14C36.2775 25.2 34.7975 26.64 32.9175 26.64ZM47.0911 18.26V22.98C47.0911 25.3 45.7511 26.64 44.2111 26.64C42.6511 26.64 41.8311 25.82 41.8311 23.6V18.26H40.2111V24.06C40.2111 26.84 41.6311 28.12 43.8711 28.12C45.1311 28.12 46.2911 27.5 47.0711 26.38H47.0911V28H48.7111V18.26H47.0911ZM56.8802 18.14C55.4402 18.14 54.1602 18.8 53.3402 19.96H53.3202V18.26H51.7002V28H53.3202V23.14C53.3202 20.94 54.5402 19.64 56.3802 19.64C57.8002 19.64 58.7602 20.4 58.7602 22.68V28H60.3802V22.22C60.3802 19.44 58.9802 18.14 56.8802 18.14ZM70.8017 13.28V19.72H70.7817C69.9817 18.7 68.7817 18.14 67.4617 18.14C64.7017 18.14 62.7017 20.32 62.7017 23.2C62.7017 26.18 64.7817 28.12 67.4817 28.12C68.8817 28.12 70.0617 27.5 70.8417 26.46H70.8817V28H72.4217V13.28H70.8017ZM67.6217 26.64C65.6417 26.64 64.3417 25.16 64.3417 23.2C64.3417 21.04 65.8017 19.64 67.6417 19.64C69.4817 19.64 70.8617 21.2 70.8617 23.2C70.8617 25.26 69.3417 26.64 67.6217 26.64ZM84.1083 22.98C84.1083 20.18 82.3083 18.14 79.5883 18.14C76.9483 18.14 74.9283 20.2 74.9283 23.14C74.9283 26.1 77.0083 28.12 79.7683 28.12C81.5483 28.12 82.8683 27.38 83.7083 26.3L82.5683 25.32C81.9683 26.08 81.0483 26.64 79.8283 26.64C78.0683 26.64 76.7883 25.46 76.5683 23.64H84.0683C84.0683 23.58 84.1083 23.24 84.1083 22.98ZM79.6683 19.64C81.2283 19.64 82.2483 20.7 82.5083 22.3H76.6283C76.9283 20.64 78.1483 19.64 79.6683 19.64ZM91.3834 18.14C90.0634 18.14 88.9234 18.82 88.2034 19.98H88.1834V18.26H86.5634V28H88.1834V23.3C88.1834 21.34 89.3034 19.92 91.1434 19.92C91.3034 19.92 91.5634 19.94 91.7834 19.96V18.16C91.6834 18.14 91.5434 18.14 91.3834 18.14ZM103.66 28.12C106.52 28.12 108.66 26.1 108.66 23.14C108.66 20.18 106.52 18.14 103.66 18.14C100.62 18.14 98.6197 20.34 98.6197 23.14C98.6197 25.94 100.62 28.12 103.66 28.12ZM103.66 26.64C101.64 26.64 100.26 25.08 100.26 23.14C100.26 21.2 101.62 19.64 103.66 19.64C105.54 19.64 107.02 21.06 107.02 23.14C107.02 25.2 105.54 26.64 103.66 26.64ZM111.495 28H113.095V19.66H115.855V18.26H113.095V16.44C113.095 15.16 113.635 14.66 114.435 14.66C114.955 14.66 115.515 14.84 116.135 15.16L116.495 13.76C115.955 13.44 115.195 13.14 114.215 13.14C112.495 13.14 111.495 14.2 111.495 16.3V18.26H110.295V19.66H111.495V28Z" fill="#665F82"/>
<g clip-path="url(#clip0_1_4158)">
<path fill-rule="evenodd" clip-rule="evenodd" d="M127.577 18.7679C127.587 18.7679 127.596 18.7662 127.605 18.7631C130.909 17.6168 131.557 14.7008 131.197 11.9544C131.174 11.7789 131.166 11.4895 131.334 11.5455C134.61 13.1473 138.294 16.6419 138.294 21.884C138.294 25.9028 135.178 29.4558 130.649 29.4558C129.033 29.5292 127.439 29.0625 126.118 28.1292C124.797 27.1959 123.824 25.8492 123.353 24.3016C122.882 22.7541 122.94 21.0938 123.518 19.5829C124.096 18.0719 125.16 16.7964 126.543 15.9576C126.631 15.8993 126.747 15.9576 126.747 16.0595C126.79 16.5905 126.932 17.9137 127.508 18.7324C127.524 18.7549 127.55 18.7679 127.577 18.7679Z" fill="url(#paint0_linear_1_4158)"/>
<path fill-rule="evenodd" clip-rule="evenodd" d="M147.933 26.271L148.181 25.9798L148.953 28.4261L148.851 28.528C148.268 29.0668 147.395 29.3434 146.273 29.3434H146.23C145.21 29.3434 144.41 29.0522 143.856 28.5134C143.303 27.9601 143.012 27.1301 143.012 26.0817V19.4127H141.046V16.7189H143.012V13.4718H146.04V16.7189H148.443V19.4127H146.026V25.4265C146.026 25.7031 146.099 26.5914 146.943 26.5914C147.38 26.5914 147.788 26.4312 147.933 26.2565V26.271ZM149.535 29.0668V16.7335H152.564V29.0668H149.535ZM151.035 11.6953C151.394 11.6953 151.746 11.8017 152.045 12.0011C152.344 12.2004 152.577 12.4839 152.715 12.8156C152.853 13.1473 152.89 13.5126 152.821 13.8652C152.752 14.2179 152.58 14.5422 152.327 14.7974C152.074 15.0525 151.751 15.227 151.399 15.2988C151.047 15.3707 150.681 15.3367 150.348 15.2012C150.016 15.0657 149.73 14.8346 149.529 14.5372C149.327 14.2398 149.218 13.8894 149.215 13.53C149.215 12.5399 150.045 11.6953 151.035 11.6953ZM160.703 16.4277C163.324 16.4277 164.766 17.8547 164.766 20.4611V29.0522H161.737V21.1892C161.679 19.7913 161.009 19.1506 159.582 19.1506C158.301 19.1506 157.267 19.9369 156.743 20.6067V29.0522H153.714V16.748H156.743V18.0585C157.616 17.214 159.014 16.4568 160.703 16.4568V16.4277ZM174.842 18.0149V12.2195H177.871V29.0813H174.842V27.7999C174.379 28.2888 173.821 28.6788 173.203 28.9465C172.585 29.2143 171.919 29.3542 171.246 29.358C167.94 29.358 165.727 26.7661 165.727 22.9074C165.727 19.0341 167.94 16.4422 171.246 16.4422C171.921 16.4453 172.588 16.5864 173.207 16.8569C173.825 17.1273 174.382 17.5214 174.842 18.0149ZM174.842 20.6213C174.505 20.1817 174.073 19.8229 173.58 19.571C173.086 19.3191 172.542 19.1805 171.988 19.1652C170.11 19.1652 168.858 20.665 168.858 22.9074C168.858 25.1353 170.11 26.6351 171.988 26.6351C173.08 26.6351 174.274 26.0526 174.842 25.2081V20.6213ZM184.948 16.4422C188.53 16.4422 191.02 19.2089 191.02 23.1404V23.9704H181.861C182.167 25.7031 183.535 26.8098 185.399 26.8098C186.579 26.8098 187.875 26.3002 188.617 25.5575L188.821 25.3828L190.263 27.4505L190.117 27.5815C188.753 28.7913 186.974 29.4277 185.152 29.358C181.366 29.358 178.701 26.6933 178.701 22.8928C178.672 22.0538 178.812 21.2174 179.114 20.4339C179.416 19.6505 179.873 18.9361 180.457 18.3336C181.042 17.7312 181.743 17.2531 182.517 16.9281C183.291 16.6031 184.123 16.4378 184.962 16.4422H184.948ZM181.846 21.6843H188.064C187.889 19.835 186.36 18.9905 184.948 18.9905C182.822 18.9905 182.021 20.5922 181.846 21.6988V21.6843ZM198.344 16.4422H198.562V19.5001L198.3 19.4564C198.082 19.4127 197.805 19.3836 197.529 19.3836C196.553 19.3836 195.199 20.068 194.689 20.796V29.0522H191.66V16.7335H194.704V18.1022C195.708 17.0538 197.034 16.4422 198.344 16.4422Z" fill="#0F0928"/>
</g>
<rect x="0.5" y="0.5" width="213.6" height="40" rx="20" stroke="url(#paint1_linear_1_4158)"/>
<defs>
<linearGradient id="paint0_linear_1_4158" x1="138.294" y1="11.5391" x2="120.6" y2="26.599" gradientUnits="userSpaceOnUse">
<stop stop-color="#FF7854"/>
<stop offset="1" stop-color="#FD267D"/>
</linearGradient>
<linearGradient id="paint1_linear_1_4158" x1="202.599" y1="-2.00001" x2="4.87118" y2="57.2547" gradientUnits="userSpaceOnUse">
<stop stop-color="#FF7854"/>
<stop offset="1" stop-color="#FD267D" stop-opacity="0"/>
</linearGradient>
<clipPath id="clip0_1_4158">
<rect width="75.6" height="18" fill="white" transform="translate(123 11.5)"/>
</clipPath>
</defs>
</svg>
